<svg xmlns="http://www.w3.org/2000/svg" xmlns:xlink="http://www.w3.org/1999/xlink" width="1820" zoomAndPan="magnify" viewBox="0 0 1365 344.250003" height="459" preserveAspectRatio="xMidYMid meet" version="1.0"><defs><g/></defs><path fill="#ffed00" d="M 108.304688 43.417969 L 1256.691406 43.417969 C 1303.472656 43.417969 1341.394531 81.339844 1341.394531 128.117188 L 1341.394531 215.382812 C 1341.394531 262.164062 1303.472656 300.085938 1256.691406 300.085938 L 108.304688 300.085938 C 61.527344 300.085938 23.605469 262.164062 23.605469 215.382812 L 23.605469 128.117188 C 23.605469 81.339844 61.527344 43.417969 108.304688 43.417969 Z M 108.304688 43.417969 " fill-opacity="0.61" fill-rule="nonzero"/><path fill="#413426" d="M 45.515625 250.003906 L 1319.480469 250.003906 L 1319.480469 269.566406 L 45.515625 269.566406 Z M 45.515625 250.003906 " fill-opacity="1" fill-rule="nonzero"/><g fill="#413426" fill-opacity="1"><g transform="translate(45.515168, 240.221492)"><g><path d="M 58.6875 -136.9375 C 61.8125 -136.9375 64.023438 -136.804688 65.328125 -136.546875 C 66.640625 -136.285156 67.457031 -135.535156 67.78125 -134.296875 C 68.101562 -133.054688 68.265625 -130.875 68.265625 -127.75 C 68.265625 -125.789062 68.265625 -124.09375 68.265625 -122.65625 C 68.265625 -121.21875 68.203125 -120.109375 68.078125 -119.328125 C 68.078125 -117.765625 67.75 -116.523438 67.09375 -115.609375 C 66.3125 -114.960938 65.269531 -114.570312 63.96875 -114.4375 C 62.664062 -114.3125 61.101562 -114.25 59.28125 -114.25 C 57.320312 -114.25 55.394531 -114.179688 53.5 -114.046875 C 51.613281 -113.921875 50.082031 -113.269531 48.90625 -112.09375 C 47.726562 -111.050781 47.070312 -109.550781 46.9375 -107.59375 C 46.8125 -105.632812 46.75 -102.765625 46.75 -98.984375 L 46.75 -75.90625 L 55.359375 -71.015625 C 56.398438 -70.234375 56.921875 -69.316406 56.921875 -68.265625 C 56.921875 -66.960938 56.398438 -65.988281 55.359375 -65.34375 L 46.75 -60.453125 L 46.75 -11.9375 C 46.75 -8.414062 46.648438 -5.609375 46.453125 -3.515625 C 46.265625 -1.429688 44.992188 -0.257812 42.640625 0 C 37.554688 0.132812 32.664062 0.132812 27.96875 0 C 25.488281 -0.132812 24.148438 -1.242188 23.953125 -3.328125 C 23.765625 -5.410156 23.671875 -7.890625 23.671875 -10.765625 L 23.671875 -60.25 L 14.671875 -65.34375 C 13.753906 -65.863281 13.296875 -66.835938 13.296875 -68.265625 C 13.296875 -69.316406 13.753906 -70.234375 14.671875 -71.015625 L 23.671875 -76.09375 L 23.671875 -100.9375 C 23.671875 -104.332031 23.601562 -106.8125 23.46875 -108.375 C 23.34375 -109.9375 22.820312 -111.175781 21.90625 -112.09375 C 21 -113.132812 19.628906 -113.753906 17.796875 -113.953125 C 15.972656 -114.148438 14.082031 -114.25 12.125 -114.25 C 11.082031 -114.25 10.171875 -114.25 9.390625 -114.25 C 8.609375 -114.25 8.019531 -114.3125 7.625 -114.4375 C 5.664062 -114.570312 4.296875 -114.960938 3.515625 -115.609375 C 2.734375 -116.265625 2.28125 -117.570312 2.15625 -119.53125 C 1.894531 -123.695312 1.894531 -128.066406 2.15625 -132.640625 C 2.15625 -134.066406 2.546875 -135.171875 3.328125 -135.953125 C 4.109375 -136.609375 5.148438 -136.9375 6.453125 -136.9375 C 7.753906 -136.9375 9.515625 -136.9375 11.734375 -136.9375 Z M 71.796875 -127.15625 C 74.796875 -127.019531 76.585938 -126.460938 77.171875 -125.484375 C 77.753906 -124.515625 78.046875 -122.007812 78.046875 -117.96875 C 78.046875 -115.09375 77.945312 -113.035156 77.75 -111.796875 C 77.5625 -110.554688 76.878906 -109.351562 75.703125 -108.1875 C 74.535156 -107.007812 73.203125 -106.222656 71.703125 -105.828125 C 70.203125 -105.441406 68.472656 -105.25 66.515625 -105.25 C 63.515625 -105.25 61.425781 -105.179688 60.25 -105.046875 C 59.070312 -104.921875 58.160156 -104.53125 57.515625 -103.875 C 56.992188 -103.351562 56.695312 -102.210938 56.625 -100.453125 C 56.5625 -98.691406 56.53125 -94.941406 56.53125 -89.203125 L 56.53125 -74.34375 L 50.28125 -78.046875 L 50.28125 -98.984375 C 50.28125 -102.765625 50.34375 -105.375 50.46875 -106.8125 C 50.601562 -108.25 50.929688 -109.160156 51.453125 -109.546875 C 51.835938 -110.066406 52.519531 -110.390625 53.5 -110.515625 C 54.476562 -110.648438 56.40625 -110.71875 59.28125 -110.71875 C 61.101562 -110.71875 63.023438 -110.75 65.046875 -110.8125 C 67.066406 -110.882812 68.726562 -111.570312 70.03125 -112.875 C 70.6875 -113.53125 71.109375 -114.410156 71.296875 -115.515625 C 71.492188 -116.617188 71.59375 -117.828125 71.59375 -119.140625 C 71.59375 -120.046875 71.625 -121.179688 71.6875 -122.546875 C 71.757812 -123.921875 71.796875 -125.457031 71.796875 -127.15625 Z M 12.125 -110.71875 C 14.601562 -110.71875 16.332031 -110.648438 17.3125 -110.515625 C 18.289062 -110.390625 18.972656 -110.132812 19.359375 -109.75 C 19.628906 -109.488281 19.828125 -109.03125 19.953125 -108.375 C 20.085938 -107.71875 20.15625 -106.414062 20.15625 -104.46875 C 18.71875 -104.46875 17.800781 -104.53125 17.40625 -104.65625 C 15.445312 -104.789062 14.078125 -105.179688 13.296875 -105.828125 C 12.515625 -106.484375 12.0625 -107.789062 11.9375 -109.75 L 11.9375 -110.71875 Z M 57.125 -62.203125 C 58.164062 -62.859375 58.945312 -63.644531 59.46875 -64.5625 L 65.140625 -61.234375 C 66.179688 -60.453125 66.703125 -59.535156 66.703125 -58.484375 C 66.703125 -57.179688 66.179688 -56.207031 65.140625 -55.5625 L 56.53125 -50.671875 L 56.53125 -2.15625 C 56.53125 1.363281 56.039062 4.164062 55.0625 6.25 C 54.082031 8.34375 51.769531 9.519531 48.125 9.78125 C 45.644531 9.914062 43.882812 9.984375 42.84375 9.984375 C 41.800781 9.984375 40.101562 9.914062 37.75 9.78125 C 35.925781 9.644531 34.753906 9.023438 34.234375 7.921875 C 33.710938 6.816406 33.453125 5.414062 33.453125 3.71875 C 35.015625 3.71875 36.578125 3.71875 38.140625 3.71875 C 39.710938 3.71875 41.28125 3.648438 42.84375 3.515625 C 45.707031 3.253906 47.628906 2.304688 48.609375 0.671875 C 49.585938 -0.953125 50.109375 -2.90625 50.171875 -5.1875 C 50.242188 -7.46875 50.28125 -9.71875 50.28125 -11.9375 L 50.28125 -58.296875 Z M 57.125 -62.203125 "/></g></g></g><g fill="#413426" fill-opacity="1"><g transform="translate(125.527965, 240.221492)"><g><path d="M 77.859375 -127.546875 C 77.859375 -130.148438 77.757812 -132.429688 77.5625 -134.390625 C 77.363281 -136.347656 75.960938 -137.394531 73.359375 -137.53125 C 72.179688 -137.65625 70.320312 -137.75 67.78125 -137.8125 C 65.238281 -137.882812 62.828125 -137.820312 60.546875 -137.625 C 58.265625 -137.425781 56.796875 -137 56.140625 -136.34375 C 55.234375 -135.4375 54.78125 -132.570312 54.78125 -127.75 C 54.644531 -125.789062 54.578125 -123.34375 54.578125 -120.40625 C 54.578125 -117.46875 54.578125 -114.109375 54.578125 -110.328125 L 54.578125 -92.921875 C 54.578125 -90.054688 54.410156 -87.347656 54.078125 -84.796875 C 53.753906 -82.253906 52.097656 -80.851562 49.109375 -80.59375 C 46.628906 -80.207031 43.921875 -80.078125 40.984375 -80.203125 C 38.046875 -80.335938 35.992188 -80.925781 34.828125 -81.96875 C 33.773438 -83.007812 33.21875 -84.539062 33.15625 -86.5625 C 33.09375 -88.582031 33.0625 -91.160156 33.0625 -94.296875 L 33.0625 -126.765625 C 33.0625 -129.765625 32.960938 -132.273438 32.765625 -134.296875 C 32.566406 -136.316406 31.164062 -137.394531 28.5625 -137.53125 C 27.382812 -137.65625 25.523438 -137.75 22.984375 -137.8125 C 20.441406 -137.882812 17.992188 -137.820312 15.640625 -137.625 C 13.296875 -137.425781 11.800781 -137 11.15625 -136.34375 C 10.238281 -135.4375 9.78125 -132.570312 9.78125 -127.75 L 9.78125 -12.515625 C 9.78125 -8.992188 9.84375 -6.453125 9.96875 -4.890625 C 10.101562 -3.328125 10.5 -2.15625 11.15625 -1.375 C 11.9375 -0.59375 13.238281 -0.164062 15.0625 -0.09375 C 16.882812 -0.03125 19.425781 0 22.6875 0 C 25.945312 0 28.296875 -0.191406 29.734375 -0.578125 C 31.171875 -0.972656 32.082031 -1.890625 32.46875 -3.328125 C 32.863281 -4.765625 33.0625 -6.984375 33.0625 -9.984375 L 33.0625 -45.578125 C 33.0625 -48.316406 33.191406 -50.796875 33.453125 -53.015625 C 33.710938 -55.234375 35.273438 -56.40625 38.140625 -56.53125 C 40.097656 -56.664062 42.1875 -56.765625 44.40625 -56.828125 C 46.625 -56.890625 48.613281 -56.59375 50.375 -55.9375 C 52.132812 -55.289062 53.273438 -54.054688 53.796875 -52.234375 C 54.316406 -50.535156 54.578125 -47.863281 54.578125 -44.21875 L 54.78125 -10.171875 C 54.78125 -7.566406 54.875 -5.316406 55.0625 -3.421875 C 55.257812 -1.535156 56.597656 -0.460938 59.078125 -0.203125 C 59.992188 -0.0664062 61.070312 0 62.3125 0 C 63.550781 0 65.015625 0 66.703125 0 C 70.222656 0 72.765625 -0.160156 74.328125 -0.484375 C 75.898438 -0.816406 76.878906 -1.765625 77.265625 -3.328125 C 77.660156 -4.890625 77.859375 -7.367188 77.859375 -10.765625 Z M 36.578125 -127.75 L 38.34375 -127.75 C 40.945312 -127.75 42.347656 -126.703125 42.546875 -124.609375 C 42.742188 -122.523438 42.84375 -119.984375 42.84375 -116.984375 L 42.84375 -83.734375 C 41.539062 -83.734375 40.492188 -83.796875 39.703125 -83.921875 C 38.921875 -84.054688 38.207031 -84.382812 37.5625 -84.90625 C 37.039062 -85.425781 36.742188 -86.335938 36.671875 -87.640625 C 36.609375 -88.941406 36.578125 -91.160156 36.578125 -94.296875 Z M 83.140625 -127.75 C 85.742188 -127.75 87.144531 -126.734375 87.34375 -124.703125 C 87.539062 -122.679688 87.640625 -120.367188 87.640625 -117.765625 L 87.640625 -2.546875 C 87.640625 1.753906 86.988281 4.882812 85.6875 6.84375 C 84.382812 8.800781 81.316406 9.78125 76.484375 9.78125 C 74.796875 9.78125 73.332031 9.78125 72.09375 9.78125 C 70.851562 9.78125 69.773438 9.710938 68.859375 9.578125 C 67.160156 9.453125 66.019531 8.832031 65.4375 7.71875 C 64.851562 6.613281 64.5625 5.210938 64.5625 3.515625 L 66.703125 3.515625 C 71.660156 3.515625 75.148438 3.316406 77.171875 2.921875 C 79.191406 2.535156 80.394531 1.332031 80.78125 -0.6875 C 81.175781 -2.707031 81.375 -6.066406 81.375 -10.765625 L 81.375 -127.75 Z M 39.515625 -53.015625 C 43.816406 -53.273438 46.617188 -53.273438 47.921875 -53.015625 C 49.234375 -52.753906 50.082031 -52.164062 50.46875 -51.25 C 50.863281 -50.34375 51.0625 -48.910156 51.0625 -46.953125 C 50.539062 -46.953125 50.015625 -46.914062 49.484375 -46.84375 C 48.960938 -46.78125 48.441406 -46.75 47.921875 -46.75 C 45.054688 -46.625 43.492188 -45.453125 43.234375 -43.234375 C 42.972656 -41.015625 42.84375 -38.535156 42.84375 -35.796875 L 42.84375 -0.203125 C 42.84375 3.847656 42.253906 6.523438 41.078125 7.828125 C 39.910156 9.128906 37.039062 9.78125 32.46875 9.78125 C 29.207031 9.78125 26.664062 9.742188 24.84375 9.671875 C 23.019531 9.609375 21.71875 9.1875 20.9375 8.40625 C 20.15625 7.5 19.695312 5.867188 19.5625 3.515625 L 22.6875 3.515625 C 27.382812 3.515625 30.675781 3.316406 32.5625 2.921875 C 34.457031 2.535156 35.597656 1.398438 35.984375 -0.484375 C 36.378906 -2.378906 36.578125 -5.546875 36.578125 -9.984375 L 36.578125 -45.578125 C 36.578125 -48.453125 36.835938 -50.375 37.359375 -51.34375 C 37.878906 -52.320312 38.597656 -52.878906 39.515625 -53.015625 Z M 39.515625 -53.015625 "/></g></g></g><g fill="#413426" fill-opacity="1"><g transform="translate(222.951863, 240.221492)"><g><path d="M 71.015625 -18.96875 C 70.753906 -21.1875 69.707031 -22.394531 67.875 -22.59375 C 66.050781 -22.789062 63.640625 -22.953125 60.640625 -23.078125 L 41.46875 -23.078125 C 38.207031 -23.210938 36.019531 -23.863281 34.90625 -25.03125 C 33.800781 -26.207031 33.117188 -28.363281 32.859375 -31.5 C 32.734375 -34.5 32.703125 -37.332031 32.765625 -40 C 32.828125 -42.675781 32.925781 -45.1875 33.0625 -47.53125 C 33.320312 -51.707031 34.101562 -54.316406 35.40625 -55.359375 C 36.707031 -56.398438 39.1875 -56.921875 42.84375 -56.921875 C 45.707031 -56.921875 48.25 -56.921875 50.46875 -56.921875 C 52.6875 -56.921875 54.515625 -56.988281 55.953125 -57.125 C 58.816406 -57.382812 60.25 -58.816406 60.25 -61.421875 C 60.507812 -63.515625 60.640625 -65.570312 60.640625 -67.59375 C 60.640625 -69.613281 60.578125 -71.664062 60.453125 -73.75 C 60.316406 -76.09375 59.859375 -77.6875 59.078125 -78.53125 C 58.296875 -79.382812 56.734375 -79.8125 54.390625 -79.8125 C 53.734375 -79.945312 52.816406 -80.015625 51.640625 -80.015625 C 50.472656 -80.015625 49.101562 -80.015625 47.53125 -80.015625 C 44.53125 -80.015625 41.953125 -80.078125 39.796875 -80.203125 C 37.648438 -80.335938 35.992188 -80.925781 34.828125 -81.96875 C 33.648438 -83.40625 33.0625 -85.296875 33.0625 -87.640625 C 32.925781 -90.765625 32.828125 -93.957031 32.765625 -97.21875 C 32.703125 -100.476562 32.734375 -103.738281 32.859375 -107 C 33.117188 -110 33.800781 -112.085938 34.90625 -113.265625 C 36.019531 -114.441406 38.207031 -115.09375 41.46875 -115.21875 L 60.84375 -115.21875 C 63.707031 -115.21875 66.082031 -115.347656 67.96875 -115.609375 C 69.863281 -115.867188 70.878906 -117.175781 71.015625 -119.53125 C 71.140625 -121.09375 71.234375 -123.015625 71.296875 -125.296875 C 71.367188 -127.578125 71.304688 -129.726562 71.109375 -131.75 C 70.910156 -133.769531 70.488281 -135.039062 69.84375 -135.5625 C 68.664062 -136.476562 65.988281 -136.9375 61.8125 -136.9375 L 19.5625 -136.9375 C 16.4375 -136.9375 14.1875 -136.769531 12.8125 -136.4375 C 11.445312 -136.113281 10.597656 -135.234375 10.265625 -133.796875 C 9.941406 -132.367188 9.78125 -130.023438 9.78125 -126.765625 L 9.78125 -12.90625 C 9.78125 -9.257812 9.8125 -6.648438 9.875 -5.078125 C 9.945312 -3.515625 10.4375 -2.34375 11.34375 -1.5625 C 12.257812 -0.78125 13.46875 -0.320312 14.96875 -0.1875 C 16.46875 -0.0625 17.867188 0 19.171875 0 L 61.625 0 C 63.707031 0 65.726562 -0.128906 67.6875 -0.390625 C 69.644531 -0.648438 70.6875 -1.953125 70.8125 -4.296875 C 71.070312 -6.648438 71.234375 -9.066406 71.296875 -11.546875 C 71.367188 -14.023438 71.273438 -16.5 71.015625 -18.96875 Z M 74.921875 -126.953125 C 76.097656 -126.828125 76.910156 -126.664062 77.359375 -126.46875 C 77.816406 -126.269531 78.242188 -126.039062 78.640625 -125.78125 C 79.554688 -124.875 80.015625 -123.015625 80.015625 -120.203125 C 80.015625 -117.398438 79.882812 -114.894531 79.625 -112.6875 C 79.488281 -109.945312 78.410156 -108.050781 76.390625 -107 C 74.367188 -105.957031 71.660156 -105.4375 68.265625 -105.4375 L 49.296875 -105.4375 C 46.035156 -105.4375 44.175781 -105.109375 43.71875 -104.453125 C 43.257812 -103.804688 42.898438 -101.984375 42.640625 -98.984375 C 42.378906 -93.765625 42.378906 -88.613281 42.640625 -83.53125 C 40.160156 -83.664062 38.5625 -83.894531 37.84375 -84.21875 C 37.132812 -84.539062 36.710938 -85.742188 36.578125 -87.828125 C 36.453125 -94.347656 36.453125 -100.675781 36.578125 -106.8125 C 36.710938 -109.03125 37.039062 -110.363281 37.5625 -110.8125 C 38.082031 -111.269531 39.382812 -111.566406 41.46875 -111.703125 L 60.84375 -111.703125 C 65.144531 -111.703125 68.535156 -111.929688 71.015625 -112.390625 C 73.492188 -112.847656 74.796875 -115.160156 74.921875 -119.328125 Z M 63.78125 -61.234375 C 63.90625 -62.660156 64 -64.09375 64.0625 -65.53125 C 64.132812 -66.96875 64.171875 -68.46875 64.171875 -70.03125 C 66.515625 -70.03125 67.945312 -69.601562 68.46875 -68.75 C 68.988281 -67.90625 69.316406 -66.3125 69.453125 -63.96875 C 69.578125 -61.882812 69.640625 -59.894531 69.640625 -58 C 69.640625 -56.113281 69.507812 -54.0625 69.25 -51.84375 C 69.125 -50.539062 68.472656 -49.460938 67.296875 -48.609375 C 66.117188 -47.765625 64.8125 -47.273438 63.375 -47.140625 C 61.945312 -47.015625 60.125 -46.984375 57.90625 -47.046875 C 55.6875 -47.109375 53.144531 -47.140625 50.28125 -47.140625 C 47.800781 -47.140625 46.035156 -47.109375 44.984375 -47.046875 C 43.941406 -46.984375 43.289062 -46.492188 43.03125 -45.578125 C 42.769531 -44.671875 42.578125 -42.78125 42.453125 -39.90625 C 42.316406 -38.207031 42.28125 -36.085938 42.34375 -33.546875 C 42.414062 -31.003906 42.453125 -28.691406 42.453125 -26.609375 L 41.46875 -26.609375 C 39.382812 -26.734375 38.046875 -27.054688 37.453125 -27.578125 C 36.867188 -28.097656 36.515625 -29.46875 36.390625 -31.6875 C 36.253906 -35.082031 36.21875 -38.019531 36.28125 -40.5 C 36.351562 -42.976562 36.453125 -45.257812 36.578125 -47.34375 C 36.710938 -51.382812 38.800781 -53.40625 42.84375 -53.40625 L 56.140625 -53.40625 C 59.535156 -53.40625 61.625 -53.894531 62.40625 -54.875 C 63.1875 -55.851562 63.644531 -57.972656 63.78125 -61.234375 Z M 80.203125 -9.1875 C 80.203125 -4.238281 79.910156 -0.425781 79.328125 2.25 C 78.742188 4.925781 77.472656 6.785156 75.515625 7.828125 C 73.554688 8.867188 70.554688 9.453125 66.515625 9.578125 L 28.953125 9.78125 C 27.648438 9.78125 26.25 9.710938 24.75 9.578125 C 23.25 9.453125 22.039062 9 21.125 8.21875 C 20.21875 7.300781 19.695312 5.734375 19.5625 3.515625 L 61.625 3.515625 C 65.40625 3.515625 68.367188 3.285156 70.515625 2.828125 C 72.671875 2.378906 73.945312 0.132812 74.34375 -3.90625 C 74.601562 -5.34375 74.765625 -6.84375 74.828125 -8.40625 C 74.890625 -9.976562 74.859375 -11.546875 74.734375 -13.109375 C 76.296875 -13.109375 77.597656 -12.878906 78.640625 -12.421875 C 79.679688 -11.960938 80.203125 -10.882812 80.203125 -9.1875 Z M 80.203125 -9.1875 "/></g></g></g><g fill="#413426" fill-opacity="1"><g transform="translate(307.072881, 240.221492)"><g/></g></g><g fill="#413426" fill-opacity="1"><g transform="translate(352.654744, 240.221492)"><g><path d="M 84.90625 -43.03125 C 85.164062 -53.070312 82.359375 -61.351562 76.484375 -67.875 C 74.921875 -69.707031 74.140625 -71.207031 74.140625 -72.375 C 74.140625 -73.550781 74.789062 -75.050781 76.09375 -76.875 C 79.09375 -80.789062 81.113281 -85.257812 82.15625 -90.28125 C 83.207031 -95.300781 83.4375 -100.320312 82.84375 -105.34375 C 82.257812 -110.363281 80.957031 -115.054688 78.9375 -119.421875 C 76.914062 -123.796875 74.335938 -127.351562 71.203125 -130.09375 C 64.941406 -135.3125 57.3125 -137.851562 48.3125 -137.71875 C 46.75 -137.59375 44.957031 -137.53125 42.9375 -137.53125 C 40.914062 -137.53125 38.601562 -137.53125 36 -137.53125 C 28.5625 -137.65625 23.441406 -137.71875 20.640625 -137.71875 C 17.835938 -137.71875 15.914062 -137.195312 14.875 -136.15625 C 14.082031 -135.375 13.6875 -132.570312 13.6875 -127.75 L 13.6875 -76.09375 L 5.875 -71.59375 C 4.820312 -70.945312 4.296875 -69.972656 4.296875 -68.671875 C 4.296875 -67.492188 4.820312 -66.578125 5.875 -65.921875 L 13.6875 -61.421875 L 13.6875 -12.515625 C 13.6875 -9.253906 13.75 -6.804688 13.875 -5.171875 C 14.007812 -3.546875 14.40625 -2.34375 15.0625 -1.5625 C 16.101562 -0.519531 17.671875 0 19.765625 0 C 29.015625 0.132812 36.703125 0.234375 42.828125 0.296875 C 48.960938 0.359375 54.050781 0.0976562 58.09375 -0.484375 C 62.144531 -1.078125 65.601562 -2.1875 68.46875 -3.8125 C 71.332031 -5.445312 74.203125 -7.957031 77.078125 -11.34375 C 82.296875 -17.601562 84.835938 -24.582031 84.703125 -32.28125 C 84.703125 -34.5 84.703125 -36.519531 84.703125 -38.34375 C 84.703125 -40.164062 84.769531 -41.726562 84.90625 -43.03125 Z M 38.734375 -108.1875 C 39.128906 -110.65625 39.976562 -112.347656 41.28125 -113.265625 C 42.582031 -114.179688 44.472656 -114.507812 46.953125 -114.25 C 49.554688 -114.113281 51.769531 -113.394531 53.59375 -112.09375 C 55.425781 -110.789062 56.601562 -108.832031 57.125 -106.21875 C 57.769531 -103.738281 58.09375 -100.9375 58.09375 -97.8125 C 58.09375 -94.6875 57.179688 -91.492188 55.359375 -88.234375 C 54.179688 -86.273438 52.359375 -84.90625 49.890625 -84.125 C 46.492188 -82.945312 43.914062 -83.070312 42.15625 -84.5 C 40.394531 -85.9375 39.21875 -88.054688 38.625 -90.859375 C 38.039062 -93.671875 37.8125 -96.671875 37.9375 -99.859375 C 38.070312 -103.054688 38.335938 -105.832031 38.734375 -108.1875 Z M 46.75 -110.71875 C 49.625 -110.457031 51.582031 -109.347656 52.625 -107.390625 C 51.84375 -107.128906 50.765625 -106.738281 49.390625 -106.21875 C 48.023438 -105.695312 47.34375 -103.804688 47.34375 -100.546875 C 47.34375 -97.421875 47.304688 -94.8125 47.234375 -92.71875 C 47.171875 -90.632812 47.207031 -88.742188 47.34375 -87.046875 C 44.601562 -86.785156 42.773438 -88.285156 41.859375 -91.546875 C 40.953125 -94.804688 40.890625 -99.4375 41.671875 -105.4375 C 41.929688 -108.050781 42.421875 -109.617188 43.140625 -110.140625 C 43.859375 -110.660156 45.0625 -110.851562 46.75 -110.71875 Z M 78.84375 -74.734375 C 81.84375 -78.515625 83.957031 -82.878906 85.1875 -87.828125 C 86.425781 -92.785156 86.914062 -97.742188 86.65625 -102.703125 C 86.53125 -104.785156 86.46875 -105.828125 86.46875 -105.828125 C 87.25 -106.085938 87.835938 -105.175781 88.234375 -103.09375 C 89.535156 -97.488281 89.757812 -91.6875 88.90625 -85.6875 C 88.0625 -79.6875 86.140625 -74.664062 83.140625 -70.625 C 82.359375 -69.707031 81.867188 -69.117188 81.671875 -68.859375 C 81.472656 -68.597656 81.242188 -68.335938 80.984375 -68.078125 L 79.03125 -70.234375 C 77.988281 -71.535156 77.5 -72.316406 77.5625 -72.578125 C 77.625 -72.835938 78.050781 -73.554688 78.84375 -74.734375 Z M 56.921875 -29.546875 C 54.578125 -25.367188 50.40625 -23.34375 44.40625 -23.46875 C 42.1875 -23.601562 40.648438 -24.160156 39.796875 -25.140625 C 38.953125 -26.117188 38.53125 -27.84375 38.53125 -30.3125 C 38.53125 -32.789062 38.53125 -36.445312 38.53125 -41.28125 C 38.53125 -45.707031 38.53125 -49.09375 38.53125 -51.4375 C 38.53125 -53.789062 38.859375 -55.550781 39.515625 -56.71875 C 40.171875 -57.894531 41.34375 -58.941406 43.03125 -59.859375 C 45.769531 -61.160156 48.738281 -60.898438 51.9375 -59.078125 C 55.132812 -57.253906 57.253906 -54.84375 58.296875 -51.84375 C 61.160156 -44.144531 60.703125 -36.710938 56.921875 -29.546875 Z M 44.609375 -56.734375 C 45.773438 -57.378906 47.171875 -57.472656 48.796875 -57.015625 C 50.429688 -56.566406 51.578125 -55.753906 52.234375 -54.578125 C 51.316406 -54.316406 50.273438 -53.40625 49.109375 -51.84375 C 48.316406 -50.664062 47.921875 -48.515625 47.921875 -45.390625 L 47.921875 -27.1875 C 47.398438 -27.0625 46.878906 -27 46.359375 -27 C 45.835938 -27 45.253906 -27 44.609375 -27 C 43.554688 -27.125 42.832031 -27.347656 42.4375 -27.671875 C 42.050781 -28.003906 41.890625 -29.144531 41.953125 -31.09375 C 42.023438 -33.050781 42.0625 -36.445312 42.0625 -41.28125 C 42.0625 -46.101562 42.09375 -49.492188 42.15625 -51.453125 C 42.21875 -53.410156 42.410156 -54.648438 42.734375 -55.171875 C 43.066406 -55.691406 43.691406 -56.210938 44.609375 -56.734375 Z M 87.046875 -53.40625 C 86.921875 -53.800781 87.117188 -53.929688 87.640625 -53.796875 C 88.160156 -53.660156 88.75 -53.007812 89.40625 -51.84375 C 90.050781 -50.539062 90.632812 -48.710938 91.15625 -46.359375 C 91.675781 -44.015625 91.9375 -41.34375 91.9375 -38.34375 C 91.9375 -36.644531 92.035156 -34.457031 92.234375 -31.78125 C 92.429688 -29.113281 92.53125 -26.671875 92.53125 -24.453125 C 92.65625 -20.535156 91.804688 -16.914062 89.984375 -13.59375 C 88.160156 -10.269531 86.269531 -7.4375 84.3125 -5.09375 C 81.1875 -1.300781 78.125 1.601562 75.125 3.625 C 72.125 5.644531 68.664062 7.078125 64.75 7.921875 C 60.84375 8.765625 55.851562 9.25 49.78125 9.375 C 43.71875 9.507812 36.054688 9.578125 26.796875 9.578125 C 22.492188 9.578125 20.148438 7.554688 19.765625 3.515625 C 29.015625 3.648438 36.769531 3.75 43.03125 3.8125 C 49.289062 3.875 54.570312 3.613281 58.875 3.03125 C 63.1875 2.445312 66.972656 1.242188 70.234375 -0.578125 C 73.492188 -2.410156 76.6875 -5.21875 79.8125 -9 C 85.6875 -15.90625 88.492188 -23.664062 88.234375 -32.28125 C 88.234375 -34.5 88.234375 -36.519531 88.234375 -38.34375 C 88.234375 -40.164062 88.296875 -41.664062 88.421875 -42.84375 C 88.421875 -44.28125 88.253906 -46.171875 87.921875 -48.515625 C 87.597656 -50.859375 87.304688 -52.488281 87.046875 -53.40625 Z M 87.046875 -53.40625 "/></g></g></g><g fill="#413426" fill-opacity="1"><g transform="translate(447.144192, 240.221492)"><g><path d="M 78.453125 -11.734375 C 79.492188 -5.992188 79.226562 -2.472656 77.65625 -1.171875 C 77.132812 -0.648438 75.570312 -0.289062 72.96875 -0.09375 C 70.363281 0.101562 67.753906 0.164062 65.140625 0.09375 C 62.535156 0.03125 60.972656 0 60.453125 0 C 58.617188 -0.132812 57.3125 -0.59375 56.53125 -1.375 C 55.625 -2.15625 55.039062 -3.359375 54.78125 -4.984375 C 54.519531 -6.617188 54.191406 -9 53.796875 -12.125 C 53.660156 -13.5625 53.523438 -14.863281 53.390625 -16.03125 C 53.265625 -17.207031 53.070312 -18.1875 52.8125 -18.96875 C 52.8125 -19.625 52.648438 -20.863281 52.328125 -22.6875 C 52.003906 -24.519531 51.351562 -26.28125 50.375 -27.96875 C 49.394531 -29.664062 47.734375 -30.515625 45.390625 -30.515625 C 44.867188 -30.648438 44.472656 -30.71875 44.203125 -30.71875 C 43.941406 -30.71875 43.8125 -30.71875 43.8125 -30.71875 C 40.425781 -30.71875 37.882812 -30.550781 36.1875 -30.21875 C 34.488281 -29.894531 33.28125 -29.015625 32.5625 -27.578125 C 31.851562 -26.148438 31.300781 -23.738281 30.90625 -20.34375 C 30.78125 -19.5625 30.488281 -17.863281 30.03125 -15.25 C 29.570312 -12.644531 28.953125 -9.0625 28.171875 -4.5 C 27.648438 -1.632812 26.019531 -0.203125 23.28125 -0.203125 C 17.28125 -0.0664062 12.191406 -0.0664062 8.015625 -0.203125 C 5.273438 -0.328125 3.9375 -1.300781 4 -3.125 C 4.070312 -4.957031 4.300781 -7.304688 4.6875 -10.171875 C 5.476562 -14.609375 6.488281 -20.347656 7.71875 -27.390625 C 8.957031 -34.429688 10.296875 -42.125 11.734375 -50.46875 C 13.171875 -58.8125 14.601562 -67.222656 16.03125 -75.703125 C 17.46875 -84.179688 18.804688 -92.132812 20.046875 -99.5625 C 21.285156 -107 22.363281 -113.359375 23.28125 -118.640625 C 24.195312 -123.921875 24.785156 -127.476562 25.046875 -129.3125 C 25.691406 -132.570312 26.566406 -134.65625 27.671875 -135.5625 C 28.785156 -136.476562 30.90625 -136.9375 34.03125 -136.9375 L 51.84375 -136.9375 C 53.925781 -136.675781 55.359375 -136.285156 56.140625 -135.765625 C 56.796875 -135.109375 57.347656 -134 57.796875 -132.4375 C 58.253906 -130.875 58.617188 -129.3125 58.890625 -127.75 C 59.796875 -122.394531 60.898438 -115.867188 62.203125 -108.171875 C 63.515625 -100.484375 64.882812 -92.300781 66.3125 -83.625 C 67.75 -74.957031 69.179688 -66.445312 70.609375 -58.09375 C 72.046875 -49.75 73.351562 -42.117188 74.53125 -35.203125 C 75.707031 -28.296875 76.65625 -22.722656 77.375 -18.484375 C 78.09375 -14.242188 78.453125 -11.992188 78.453125 -11.734375 Z M 89.984375 -1.953125 C 90.503906 0.910156 90.765625 3.0625 90.765625 4.5 C 90.765625 5.9375 90.375 6.976562 89.59375 7.625 C 88.8125 8.28125 87.929688 8.769531 86.953125 9.09375 C 85.972656 9.414062 84.273438 9.609375 81.859375 9.671875 C 79.453125 9.742188 75.578125 9.78125 70.234375 9.78125 C 68.535156 9.78125 67.226562 9.320312 66.3125 8.40625 C 65.40625 7.625 64.753906 5.992188 64.359375 3.515625 C 64.617188 3.515625 64.941406 3.546875 65.328125 3.609375 C 65.722656 3.679688 66.117188 3.71875 66.515625 3.71875 C 71.078125 3.71875 74.53125 3.585938 76.875 3.328125 C 79.226562 3.066406 80.988281 2.285156 82.15625 0.984375 C 82.8125 0.191406 83.101562 -1.304688 83.03125 -3.515625 C 82.96875 -5.734375 82.613281 -8.671875 81.96875 -12.328125 C 81.832031 -12.710938 81.664062 -13.585938 81.46875 -14.953125 C 81.28125 -16.328125 80.925781 -18.644531 80.40625 -21.90625 C 80.144531 -23.34375 79.65625 -26.113281 78.9375 -30.21875 C 78.21875 -34.332031 77.367188 -39.222656 76.390625 -44.890625 C 75.410156 -50.566406 74.398438 -56.5 73.359375 -62.6875 C 72.316406 -68.882812 71.304688 -74.882812 70.328125 -80.6875 C 69.347656 -86.5 68.5 -91.617188 67.78125 -96.046875 C 67.0625 -100.484375 66.570312 -103.613281 66.3125 -105.4375 C 65.789062 -108.570312 65.203125 -111.929688 64.546875 -115.515625 C 63.898438 -119.097656 63.25 -122.910156 62.59375 -126.953125 C 64.164062 -126.953125 65.242188 -126.851562 65.828125 -126.65625 C 66.410156 -126.46875 66.960938 -126.175781 67.484375 -125.78125 C 68.140625 -125.132812 68.695312 -124.023438 69.15625 -122.453125 C 69.613281 -120.890625 69.972656 -119.328125 70.234375 -117.765625 C 70.234375 -117.765625 70.585938 -115.644531 71.296875 -111.40625 C 72.015625 -107.164062 72.960938 -101.625 74.140625 -94.78125 C 75.316406 -87.9375 76.617188 -80.40625 78.046875 -72.1875 C 79.484375 -63.96875 80.921875 -55.71875 82.359375 -47.4375 C 83.796875 -39.15625 85.066406 -31.585938 86.171875 -24.734375 C 87.273438 -17.890625 88.1875 -12.378906 88.90625 -8.203125 C 89.625 -4.035156 89.984375 -1.953125 89.984375 -1.953125 Z M 47.734375 -54.78125 C 47.734375 -55.039062 47.734375 -55.429688 47.734375 -55.953125 C 47.734375 -56.472656 47.664062 -57.1875 47.53125 -58.09375 C 47.40625 -59.269531 47.144531 -60.96875 46.75 -63.1875 C 46.363281 -65.40625 45.972656 -67.488281 45.578125 -69.4375 C 45.191406 -71.394531 45 -72.441406 45 -72.578125 C 44.863281 -73.359375 44.46875 -74.335938 43.8125 -75.515625 C 43.289062 -76.554688 42.570312 -76.976562 41.65625 -76.78125 C 40.75 -76.582031 40.101562 -76.160156 39.71875 -75.515625 C 39.0625 -73.679688 38.4375 -71.265625 37.84375 -68.265625 C 37.257812 -65.273438 36.835938 -61.691406 36.578125 -57.515625 C 36.453125 -56.992188 36.390625 -56.503906 36.390625 -56.046875 C 36.390625 -55.585938 36.390625 -55.226562 36.390625 -54.96875 C 36.390625 -54.050781 37.300781 -53.429688 39.125 -53.109375 C 40.945312 -52.785156 42.800781 -52.785156 44.6875 -53.109375 C 46.582031 -53.429688 47.597656 -53.988281 47.734375 -54.78125 Z M 43.8125 -56.734375 C 43.550781 -56.597656 42.898438 -56.53125 41.859375 -56.53125 L 40.109375 -56.53125 L 40.109375 -57.3125 C 40.367188 -59.925781 40.628906 -62.242188 40.890625 -64.265625 C 41.148438 -66.285156 41.410156 -68.015625 41.671875 -69.453125 C 41.796875 -69.191406 41.859375 -68.925781 41.859375 -68.65625 C 41.859375 -68.394531 41.925781 -68.070312 42.0625 -67.6875 C 42.320312 -66.125 42.644531 -64.332031 43.03125 -62.3125 C 43.425781 -60.289062 43.6875 -58.753906 43.8125 -57.703125 Z M 45.1875 -26.796875 C 45.582031 -26.796875 46.171875 -26.566406 46.953125 -26.109375 C 47.734375 -25.660156 48.382812 -23.9375 48.90625 -20.9375 C 46.300781 -20.9375 44.410156 -20.671875 43.234375 -20.140625 C 42.054688 -19.617188 41.238281 -18.640625 40.78125 -17.203125 C 40.332031 -15.773438 39.910156 -13.5625 39.515625 -10.5625 C 39.390625 -9.78125 39.226562 -8.671875 39.03125 -7.234375 C 38.832031 -5.804688 38.34375 -2.875 37.5625 1.5625 C 37.300781 3 36.613281 4.691406 35.5 6.640625 C 34.394531 8.597656 32.210938 9.578125 28.953125 9.578125 C 25.953125 9.578125 23.863281 9.609375 22.6875 9.671875 C 21.519531 9.742188 19.890625 9.710938 17.796875 9.578125 C 15.710938 9.453125 14.503906 8.832031 14.171875 7.71875 C 13.847656 6.613281 13.753906 5.210938 13.890625 3.515625 L 14.875 3.515625 C 16.175781 3.515625 17.539062 3.515625 18.96875 3.515625 C 20.40625 3.515625 21.84375 3.453125 23.28125 3.328125 C 28.101562 3.328125 30.90625 0.976562 31.6875 -3.71875 L 33.25 -12.125 C 33.507812 -14.34375 33.769531 -16.070312 34.03125 -17.3125 C 34.300781 -18.550781 34.4375 -19.429688 34.4375 -19.953125 C 34.5625 -20.734375 34.753906 -21.90625 35.015625 -23.46875 C 35.273438 -25.039062 35.664062 -26.019531 36.1875 -26.40625 C 36.582031 -26.664062 37.5625 -26.828125 39.125 -26.890625 C 40.6875 -26.960938 42.25 -27 43.8125 -27 L 44.609375 -27 L 44.796875 -26.796875 Z M 45.1875 -26.796875 "/></g></g></g><g fill="#413426" fill-opacity="1"><g transform="translate(539.872964, 240.221492)"><g><path d="M 78.640625 -10.765625 C 76.035156 -21.191406 73.851562 -29.726562 72.09375 -36.375 C 70.332031 -43.03125 68.992188 -47.925781 68.078125 -51.0625 C 66.898438 -56.007812 67.617188 -60.113281 70.234375 -63.375 C 74.015625 -68.207031 75.90625 -72.835938 75.90625 -77.265625 C 76.03125 -95.265625 76.03125 -106.875 75.90625 -112.09375 C 75.769531 -117.570312 73.941406 -122.394531 70.421875 -126.5625 C 66.898438 -130.738281 62.46875 -133.476562 57.125 -134.78125 C 50.863281 -136.613281 45.253906 -137.398438 40.296875 -137.140625 L 29.9375 -137.140625 C 24.320312 -137.140625 20.015625 -137.140625 17.015625 -137.140625 C 14.015625 -137.140625 12.0625 -136.679688 11.15625 -135.765625 C 10.238281 -134.847656 9.78125 -131.910156 9.78125 -126.953125 L 9.78125 -11.34375 C 9.78125 -8.082031 9.878906 -5.410156 10.078125 -3.328125 C 10.273438 -1.242188 11.675781 -0.132812 14.28125 0 C 18.976562 0.257812 23.609375 0.257812 28.171875 0 C 30.910156 -0.132812 32.375 -1.210938 32.5625 -3.234375 C 32.757812 -5.253906 32.859375 -7.695312 32.859375 -10.5625 L 32.859375 -38.140625 C 32.992188 -41.140625 33.222656 -43.8125 33.546875 -46.15625 C 33.867188 -48.507812 35.46875 -49.882812 38.34375 -50.28125 C 41.207031 -50.664062 43.0625 -49.878906 43.90625 -47.921875 C 44.757812 -45.972656 45.382812 -44.082031 45.78125 -42.25 L 49.5 -26.40625 C 50.539062 -22.625 51.382812 -19.394531 52.03125 -16.71875 C 52.6875 -14.050781 53.144531 -12 53.40625 -10.5625 C 54.0625 -7.820312 54.710938 -5.441406 55.359375 -3.421875 C 56.015625 -1.398438 57.382812 -0.257812 59.46875 0 C 62.726562 0.132812 65.820312 0.203125 68.75 0.203125 C 71.6875 0.203125 74.460938 0.0664062 77.078125 -0.203125 C 78.117188 -0.328125 78.929688 -0.78125 79.515625 -1.5625 C 80.109375 -2.34375 80.273438 -3.191406 80.015625 -4.109375 C 79.878906 -5.023438 79.710938 -6.035156 79.515625 -7.140625 C 79.328125 -8.242188 79.035156 -9.453125 78.640625 -10.765625 Z M 88.625 9.578125 C 86.007812 9.710938 82.941406 9.8125 79.421875 9.875 C 75.898438 9.945312 72.507812 9.914062 69.25 9.78125 C 67.6875 9.519531 66.546875 8.867188 65.828125 7.828125 C 65.109375 6.785156 64.554688 5.414062 64.171875 3.71875 C 66.773438 3.84375 69.148438 3.835938 71.296875 3.703125 C 73.453125 3.578125 75.507812 3.453125 77.46875 3.328125 C 81.25 3.066406 83.269531 2.1875 83.53125 0.6875 C 83.789062 -0.8125 83.789062 -2.601562 83.53125 -4.6875 C 83.269531 -6.257812 82.648438 -9.066406 81.671875 -13.109375 C 80.691406 -17.148438 79.550781 -21.644531 78.25 -26.59375 C 76.945312 -31.550781 75.675781 -36.34375 74.4375 -40.96875 C 73.195312 -45.601562 72.1875 -49.289062 71.40625 -52.03125 C 70.625 -55.8125 71.144531 -58.878906 72.96875 -61.234375 C 77.269531 -66.578125 79.421875 -71.921875 79.421875 -77.265625 C 79.554688 -86.398438 79.585938 -93.835938 79.515625 -99.578125 C 79.453125 -105.316406 79.421875 -109.550781 79.421875 -112.28125 L 79.421875 -115.609375 C 79.421875 -117.441406 79.941406 -117.507812 80.984375 -115.8125 C 82.285156 -113.988281 83.359375 -111.835938 84.203125 -109.359375 C 85.054688 -106.878906 85.550781 -104.53125 85.6875 -102.3125 C 85.8125 -100.613281 85.84375 -98.984375 85.78125 -97.421875 C 85.71875 -95.859375 85.6875 -93.609375 85.6875 -90.671875 C 85.6875 -87.734375 85.6875 -83.265625 85.6875 -77.265625 C 85.6875 -73.617188 85.097656 -70.226562 83.921875 -67.09375 C 82.742188 -63.96875 81.242188 -61.234375 79.421875 -58.890625 C 78.117188 -57.191406 77.726562 -55.265625 78.25 -53.109375 C 78.769531 -50.960938 79.8125 -47.019531 81.375 -41.28125 C 82.289062 -38.144531 83.5625 -33.21875 85.1875 -26.5 C 86.820312 -19.789062 89.070312 -11.285156 91.9375 -0.984375 C 92.726562 1.890625 93.054688 4.300781 92.921875 6.25 C 92.785156 8.207031 91.351562 9.316406 88.625 9.578125 Z M 54.1875 -84.90625 C 54.1875 -84.769531 54.15625 -84.503906 54.09375 -84.109375 C 54.03125 -83.722656 53.929688 -83.203125 53.796875 -82.546875 C 53.015625 -78.898438 51.125 -76.128906 48.125 -74.234375 C 45.125 -72.347656 41.796875 -71.859375 38.140625 -72.765625 C 34.878906 -73.679688 33.25 -75.769531 33.25 -79.03125 C 33.25 -79.289062 33.21875 -80.691406 33.15625 -83.234375 C 33.09375 -85.773438 33.0625 -89.203125 33.0625 -93.515625 C 33.0625 -98.984375 33.023438 -103.25 32.953125 -106.3125 C 32.890625 -109.382812 33.445312 -111.503906 34.625 -112.671875 C 35.800781 -113.847656 38.210938 -114.175781 41.859375 -113.65625 C 42.253906 -113.53125 42.675781 -113.429688 43.125 -113.359375 C 43.582031 -113.296875 44.140625 -113.203125 44.796875 -113.078125 C 48.054688 -112.285156 50.40625 -111.109375 51.84375 -109.546875 C 53.28125 -107.984375 54.0625 -105.632812 54.1875 -102.5 Z M 42.84375 -76.09375 C 41.144531 -75.832031 39.707031 -75.863281 38.53125 -76.1875 C 37.363281 -76.519531 36.78125 -77.46875 36.78125 -79.03125 C 36.78125 -79.289062 36.742188 -80.691406 36.671875 -83.234375 C 36.609375 -85.773438 36.578125 -89.203125 36.578125 -93.515625 C 36.578125 -98.859375 36.507812 -102.734375 36.375 -105.140625 C 36.25 -107.554688 36.445312 -109.09375 36.96875 -109.75 C 37.363281 -110.394531 38.800781 -110.523438 41.28125 -110.140625 C 42.96875 -110.003906 44.070312 -109.90625 44.59375 -109.84375 C 45.125 -109.78125 45.648438 -109.617188 46.171875 -109.359375 C 44.078125 -107.523438 43 -104.75 42.9375 -101.03125 C 42.875 -97.320312 42.84375 -91.554688 42.84375 -83.734375 Z M 38.734375 -46.75 C 39.773438 -47.007812 40.488281 -46.8125 40.875 -46.15625 C 41.269531 -45.507812 41.726562 -43.945312 42.25 -41.46875 L 43.421875 -36.78125 C 43.035156 -35.738281 42.84375 -34.46875 42.84375 -32.96875 C 42.84375 -31.46875 42.773438 -29.929688 42.640625 -28.359375 L 42.640625 -0.78125 C 42.640625 2.082031 42.539062 4.523438 42.34375 6.546875 C 42.15625 8.566406 40.691406 9.644531 37.953125 9.78125 C 33.390625 10.039062 28.757812 10.039062 24.0625 9.78125 C 22.238281 9.644531 21.03125 9.023438 20.4375 7.921875 C 19.851562 6.816406 19.5625 5.414062 19.5625 3.71875 C 21 3.71875 22.46875 3.71875 23.96875 3.71875 C 25.46875 3.71875 26.929688 3.648438 28.359375 3.515625 C 31.492188 3.390625 33.613281 2.539062 34.71875 0.96875 C 35.832031 -0.59375 36.390625 -2.445312 36.390625 -4.59375 C 36.390625 -6.75 36.390625 -8.738281 36.390625 -10.5625 L 36.390625 -38.140625 C 36.515625 -41.921875 36.707031 -44.269531 36.96875 -45.1875 C 37.226562 -46.101562 37.816406 -46.625 38.734375 -46.75 Z M 38.734375 -46.75 "/></g></g></g><g fill="#413426" fill-opacity="1"><g transform="translate(634.949279, 240.221492)"><g><path d="M 78.453125 -126.171875 C 78.453125 -128.785156 78.351562 -131.164062 78.15625 -133.3125 C 77.957031 -135.46875 76.75 -136.609375 74.53125 -136.734375 C 73.226562 -136.867188 71.789062 -136.9375 70.21875 -136.9375 C 68.65625 -136.9375 67.03125 -136.9375 65.34375 -136.9375 C 62.082031 -136.9375 59.765625 -136.769531 58.390625 -136.4375 C 57.023438 -136.113281 56.175781 -135.300781 55.84375 -134 C 55.519531 -132.695312 55.359375 -130.414062 55.359375 -127.15625 L 55.359375 -40.6875 C 55.359375 -36.25 54.769531 -32.140625 53.59375 -28.359375 C 52.425781 -24.578125 49.625 -22.296875 45.1875 -21.515625 C 41.664062 -20.992188 38.957031 -22.132812 37.0625 -24.9375 C 35.175781 -27.738281 34.164062 -30.378906 34.03125 -32.859375 C 33.90625 -33.910156 33.84375 -35.085938 33.84375 -36.390625 C 33.84375 -37.691406 33.84375 -39.0625 33.84375 -40.5 L 33.84375 -124.609375 C 33.84375 -128.265625 33.742188 -131.164062 33.546875 -133.3125 C 33.347656 -135.46875 31.945312 -136.609375 29.34375 -136.734375 C 28.039062 -136.867188 26.148438 -136.96875 23.671875 -137.03125 C 21.191406 -137.101562 18.84375 -137.003906 16.625 -136.734375 C 14.40625 -136.472656 12.90625 -136.019531 12.125 -135.375 C 11.21875 -134.457031 10.765625 -131.585938 10.765625 -126.765625 L 10.765625 -35.796875 C 10.765625 -31.234375 11.546875 -25.625 13.109375 -18.96875 C 13.492188 -17.664062 14.015625 -16.363281 14.671875 -15.0625 C 15.328125 -13.757812 16.046875 -12.519531 16.828125 -11.34375 C 22.171875 -4.5625 28.625 -0.359375 36.1875 1.265625 C 43.75 2.898438 51.640625 2.28125 59.859375 -0.59375 C 63.253906 -1.757812 66.382812 -4.070312 69.25 -7.53125 C 72.125 -10.988281 74.40625 -14.929688 76.09375 -19.359375 C 77.789062 -23.796875 78.578125 -28.035156 78.453125 -32.078125 C 78.453125 -33.378906 78.453125 -35.070312 78.453125 -37.15625 C 78.453125 -39.25 78.453125 -42.25 78.453125 -46.15625 C 78.453125 -50.070312 78.453125 -55.390625 78.453125 -62.109375 C 78.453125 -68.828125 78.453125 -77.398438 78.453125 -87.828125 C 78.453125 -98.265625 78.453125 -111.046875 78.453125 -126.171875 Z M 84.3125 -126.953125 C 86.53125 -126.828125 87.738281 -125.6875 87.9375 -123.53125 C 88.132812 -121.382812 88.234375 -119.003906 88.234375 -116.390625 L 88.234375 -31.6875 C 88.234375 -24.90625 86.601562 -18.15625 83.34375 -11.4375 C 80.082031 -4.726562 75.582031 0.382812 69.84375 3.90625 C 68.53125 4.820312 67.222656 5.476562 65.921875 5.875 C 62.015625 7.175781 58.625 8.019531 55.75 8.40625 C 52.882812 8.800781 50.144531 8.800781 47.53125 8.40625 C 44.925781 8.019531 41.992188 7.4375 38.734375 6.65625 C 37.171875 6.257812 36.421875 5.832031 36.484375 5.375 C 36.546875 4.914062 37.425781 4.820312 39.125 5.09375 C 42.519531 5.613281 46.171875 5.675781 50.078125 5.28125 C 53.992188 4.882812 57.644531 4.035156 61.03125 2.734375 C 67.8125 -0.00390625 73.0625 -4.664062 76.78125 -11.25 C 80.5 -17.832031 82.226562 -24.773438 81.96875 -32.078125 L 81.96875 -127.15625 C 82.351562 -127.019531 82.742188 -126.953125 83.140625 -126.953125 C 83.535156 -126.953125 83.925781 -126.953125 84.3125 -126.953125 Z M 37.359375 -127.15625 C 37.753906 -127.019531 38.113281 -126.953125 38.4375 -126.953125 C 38.757812 -126.953125 38.988281 -126.953125 39.125 -126.953125 C 41.726562 -126.828125 43.128906 -125.6875 43.328125 -123.53125 C 43.523438 -121.382812 43.625 -118.484375 43.625 -114.828125 L 43.625 -25.046875 C 42.0625 -25.171875 40.691406 -26.015625 39.515625 -27.578125 C 38.335938 -29.148438 37.6875 -30.976562 37.5625 -33.0625 L 37.5625 -33.25 C 37.425781 -34.300781 37.359375 -35.410156 37.359375 -36.578125 C 37.359375 -37.753906 37.359375 -39.0625 37.359375 -40.5 Z M 37.359375 -127.15625 "/></g></g></g><g fill="#413426" fill-opacity="1"><g transform="translate(733.938218, 240.221492)"><g><path d="M 70.234375 0 L 64.75 0 C 59.40625 0.394531 55.753906 -2.082031 53.796875 -7.4375 C 53.535156 -8.34375 52.101562 -12.1875 49.5 -18.96875 C 47.144531 -24.96875 45.28125 -29.695312 43.90625 -33.15625 C 42.539062 -36.613281 41.664062 -38.800781 41.28125 -39.71875 C 40.757812 -41.144531 40.203125 -42.378906 39.609375 -43.421875 C 39.023438 -44.472656 38.472656 -45.257812 37.953125 -45.78125 C 37.429688 -46.425781 36.742188 -46.75 35.890625 -46.75 C 35.046875 -46.75 34.363281 -46.425781 33.84375 -45.78125 C 32.28125 -43.820312 31.5 -41.144531 31.5 -37.75 C 31.5 -38.007812 31.5 -36.507812 31.5 -33.25 C 31.5 -29.988281 31.429688 -25.097656 31.296875 -18.578125 L 31.296875 -5.484375 C 31.171875 -3.523438 30.710938 -2.1875 29.921875 -1.46875 C 29.140625 -0.75 27.835938 -0.257812 26.015625 0 C 24.191406 0 22.300781 0 20.34375 0 C 18.382812 0 16.492188 -0.0664062 14.671875 -0.203125 C 11.671875 -0.203125 10.109375 -1.832031 9.984375 -5.09375 C 9.847656 -5.738281 9.78125 -6.644531 9.78125 -7.8125 C 9.78125 -8.988281 9.78125 -10.425781 9.78125 -12.125 L 9.78125 -125.984375 C 9.78125 -128.984375 9.910156 -131.492188 10.171875 -133.515625 C 10.429688 -135.535156 11.734375 -136.609375 14.078125 -136.734375 C 18.390625 -136.867188 22.757812 -136.867188 27.1875 -136.734375 C 29.40625 -136.609375 30.644531 -135.628906 30.90625 -133.796875 C 31.164062 -131.972656 31.296875 -129.890625 31.296875 -127.546875 L 31.296875 -119.71875 C 31.296875 -116.71875 31.328125 -114.207031 31.390625 -112.1875 C 31.460938 -110.164062 31.757812 -108.113281 32.28125 -106.03125 C 32.539062 -105.113281 33.125 -104.554688 34.03125 -104.359375 C 34.945312 -104.171875 35.796875 -104.335938 36.578125 -104.859375 C 37.753906 -105.765625 38.992188 -107.65625 40.296875 -110.53125 C 40.953125 -111.570312 41.671875 -112.875 42.453125 -114.4375 C 43.234375 -116 44.082031 -117.757812 45 -119.71875 C 46.164062 -121.9375 47.109375 -123.828125 47.828125 -125.390625 C 48.546875 -126.960938 49.164062 -128.203125 49.6875 -129.109375 C 50.863281 -131.203125 51.875 -132.960938 52.71875 -134.390625 C 53.570312 -135.828125 54.84375 -136.609375 56.53125 -136.734375 C 63.832031 -137.390625 70.222656 -137.390625 75.703125 -136.734375 C 76.359375 -136.609375 76.847656 -136.25 77.171875 -135.65625 C 77.492188 -135.070312 77.523438 -134.457031 77.265625 -133.8125 C 77.003906 -133.03125 76.644531 -132.179688 76.1875 -131.265625 C 75.738281 -130.347656 75.253906 -129.367188 74.734375 -128.328125 C 73.421875 -125.722656 71.164062 -121.253906 67.96875 -114.921875 C 64.78125 -108.597656 60.707031 -100.414062 55.75 -90.375 C 54.84375 -88.550781 54.160156 -87.25 53.703125 -86.46875 C 53.242188 -85.6875 53.078125 -85.425781 53.203125 -85.6875 C 51.640625 -82.6875 51.578125 -79.6875 53.015625 -76.6875 C 53.671875 -75.125 54.453125 -73.363281 55.359375 -71.40625 C 56.273438 -69.445312 57.1875 -67.226562 58.09375 -64.75 C 61.613281 -56.007812 65.234375 -47.007812 68.953125 -37.75 C 72.671875 -28.488281 76.550781 -18.96875 80.59375 -9.1875 C 81.375 -7.5 81.960938 -5.738281 82.359375 -3.90625 C 82.878906 -2.082031 82.160156 -0.910156 80.203125 -0.390625 C 78.640625 -0.265625 77.335938 -0.164062 76.296875 -0.09375 C 75.253906 -0.03125 73.234375 0 70.234375 0 Z M 94.484375 -1.5625 C 97.742188 5.863281 95.660156 9.578125 88.234375 9.578125 L 74.53125 9.578125 C 72.050781 9.578125 69.929688 9.15625 68.171875 8.3125 C 66.410156 7.46875 65.007812 5.867188 63.96875 3.515625 L 70.234375 3.515625 C 76.234375 3.515625 80.503906 3.351562 83.046875 3.03125 C 85.585938 2.707031 86.859375 1.566406 86.859375 -0.390625 C 86.859375 -2.347656 85.878906 -5.738281 83.921875 -10.5625 C 79.878906 -20.34375 76 -29.863281 72.28125 -39.125 C 68.5625 -48.382812 64.941406 -57.382812 61.421875 -66.125 C 60.515625 -68.601562 59.570312 -70.816406 58.59375 -72.765625 C 57.613281 -74.722656 56.796875 -76.484375 56.140625 -78.046875 C 55.234375 -79.878906 55.300781 -81.90625 56.34375 -84.125 C 60.382812 -92.207031 63.644531 -98.628906 66.125 -103.390625 C 68.601562 -108.148438 70.523438 -111.929688 71.890625 -114.734375 C 73.265625 -117.535156 74.375 -119.785156 75.21875 -121.484375 C 76.0625 -123.179688 76.941406 -124.941406 77.859375 -126.765625 L 78.25 -127.359375 L 82.359375 -127.359375 C 83.015625 -127.359375 83.503906 -127 83.828125 -126.28125 C 84.148438 -125.5625 84.179688 -124.875 83.921875 -124.21875 C 83.660156 -123.4375 83.300781 -122.585938 82.84375 -121.671875 C 82.382812 -120.765625 81.894531 -119.789062 81.375 -118.75 C 80.070312 -116.132812 78.082031 -112.285156 75.40625 -107.203125 C 72.738281 -102.117188 68.925781 -94.554688 63.96875 -84.515625 C 63.3125 -83.335938 62.914062 -82.320312 62.78125 -81.46875 C 62.65625 -80.625 62.851562 -79.484375 63.375 -78.046875 C 63.90625 -76.617188 64.820312 -74.207031 66.125 -70.8125 C 66.769531 -69.25 67.8125 -66.835938 69.25 -63.578125 C 70.6875 -60.316406 71.859375 -57.445312 72.765625 -54.96875 C 76.285156 -46.226562 79.773438 -37.585938 83.234375 -29.046875 C 86.691406 -20.503906 90.441406 -11.34375 94.484375 -1.5625 Z M 36.1875 -110.140625 C 35.925781 -109.617188 35.597656 -109.390625 35.203125 -109.453125 C 34.816406 -109.515625 34.625 -109.875 34.625 -110.53125 C 34.625 -111.570312 34.65625 -112.9375 34.71875 -114.625 C 34.789062 -116.320312 34.828125 -118.019531 34.828125 -119.71875 L 34.828125 -126.953125 L 36.96875 -126.953125 C 38.925781 -126.828125 40.097656 -126.078125 40.484375 -124.703125 C 40.878906 -123.335938 41.078125 -121.675781 41.078125 -119.71875 C 40.554688 -118.675781 39.773438 -117.175781 38.734375 -115.21875 C 37.691406 -113.257812 36.84375 -111.566406 36.1875 -110.140625 Z M 35.40625 -39.71875 C 35.539062 -40.363281 35.800781 -40.785156 36.1875 -40.984375 C 36.582031 -41.179688 37.039062 -40.5625 37.5625 -39.125 L 41.28125 -29.9375 L 41.28125 -27.96875 C 41.28125 -27.96875 41.28125 -26.367188 41.28125 -23.171875 C 41.28125 -19.984375 41.210938 -15.191406 41.078125 -8.796875 L 41.078125 4.296875 C 40.953125 6.253906 40.492188 7.59375 39.703125 8.3125 C 38.921875 9.03125 37.617188 9.519531 35.796875 9.78125 C 33.972656 9.78125 32.082031 9.78125 30.125 9.78125 C 28.164062 9.78125 26.273438 9.710938 24.453125 9.578125 C 21.453125 9.578125 19.890625 7.945312 19.765625 4.6875 C 19.765625 4.164062 19.695312 3.773438 19.5625 3.515625 L 26.21875 3.515625 C 31.425781 2.992188 34.296875 0.0625 34.828125 -5.28125 L 34.828125 -18.578125 L 35.21875 -36.390625 C 35.21875 -37.035156 35.21875 -37.617188 35.21875 -38.140625 C 35.21875 -38.660156 35.28125 -39.1875 35.40625 -39.71875 Z M 35.40625 -39.71875 "/></g></g></g><g fill="#413426" fill-opacity="1"><g transform="translate(831.948983, 240.221492)"><g/></g></g><g fill="#413426" fill-opacity="1"><g transform="translate(877.530847, 240.221492)"><g><path d="M 79.03125 -75.703125 L 79.03125 -101.71875 C 79.03125 -106.9375 78.28125 -112.15625 76.78125 -117.375 C 75.28125 -122.59375 72.441406 -127.09375 68.265625 -130.875 C 64.222656 -134.78125 59.5625 -137.320312 54.28125 -138.5 C 49 -139.675781 42.515625 -139.675781 34.828125 -138.5 C 32.472656 -138.113281 30.125 -137.070312 27.78125 -135.375 C 16.4375 -127.15625 10.957031 -117.304688 11.34375 -105.828125 C 11.34375 -103.085938 11.375 -99.175781 11.4375 -94.09375 C 11.507812 -89.007812 11.476562 -82.878906 11.34375 -75.703125 L 3.515625 -71.203125 C 2.472656 -70.554688 1.953125 -69.578125 1.953125 -68.265625 C 1.953125 -67.097656 2.472656 -66.1875 3.515625 -65.53125 L 11.34375 -61.03125 L 11.34375 -32.46875 C 11.34375 -26.082031 12.453125 -20.867188 14.671875 -16.828125 C 17.796875 -10.953125 21.9375 -6.484375 27.09375 -3.421875 C 32.25 -0.359375 37.789062 1.234375 43.71875 1.359375 C 49.65625 1.492188 55.394531 0.0976562 60.9375 -2.828125 C 66.476562 -5.765625 71.207031 -10.363281 75.125 -16.625 C 75.644531 -17.539062 76.066406 -18.390625 76.390625 -19.171875 C 76.710938 -19.953125 76.941406 -20.800781 77.078125 -21.71875 C 77.859375 -25.757812 78.410156 -29.050781 78.734375 -31.59375 C 79.066406 -34.132812 79.234375 -35.925781 79.234375 -36.96875 L 79.03125 -61.03125 L 86.859375 -65.53125 C 87.898438 -66.1875 88.421875 -67.097656 88.421875 -68.265625 C 88.421875 -69.703125 87.898438 -70.679688 86.859375 -71.203125 Z M 53.40625 -28.953125 C 52.226562 -26.347656 50.398438 -24.617188 47.921875 -23.765625 C 45.453125 -22.921875 43.007812 -22.988281 40.59375 -23.96875 C 38.175781 -24.945312 36.445312 -26.738281 35.40625 -29.34375 C 35.019531 -30.125 34.757812 -31.234375 34.625 -32.671875 C 34.5 -34.109375 34.4375 -35.800781 34.4375 -37.75 L 34.4375 -101.53125 C 34.4375 -103.09375 34.4375 -104.394531 34.4375 -105.4375 C 34.4375 -106.476562 34.5 -107.265625 34.625 -107.796875 C 35.144531 -111.179688 36.738281 -113.523438 39.40625 -114.828125 C 42.082031 -116.128906 44.851562 -116.359375 47.71875 -115.515625 C 50.59375 -114.671875 52.550781 -112.617188 53.59375 -109.359375 C 53.863281 -108.441406 54.09375 -107.425781 54.28125 -106.3125 C 54.476562 -105.207031 54.578125 -103.9375 54.578125 -102.5 L 54.578125 -36.390625 C 54.578125 -33.253906 54.1875 -30.773438 53.40625 -28.953125 Z M 82.546875 -101.71875 C 82.546875 -103.9375 82.445312 -106.085938 82.25 -108.171875 C 82.0625 -110.265625 81.707031 -112.289062 81.1875 -114.25 C 81.050781 -115.15625 81.175781 -115.738281 81.5625 -116 C 81.957031 -116.257812 82.414062 -115.9375 82.9375 -115.03125 C 85.15625 -111.632812 86.6875 -107.914062 87.53125 -103.875 C 88.382812 -99.832031 88.8125 -95.851562 88.8125 -91.9375 L 88.8125 -74.140625 L 82.546875 -77.65625 Z M 38.140625 -107.390625 C 38.398438 -110.003906 39.640625 -111.570312 41.859375 -112.09375 C 44.078125 -112.613281 46.035156 -112.351562 47.734375 -111.3125 C 45.910156 -109.875 44.800781 -107.914062 44.40625 -105.4375 C 44.28125 -104.914062 44.21875 -104.132812 44.21875 -103.09375 C 44.21875 -102.050781 44.21875 -100.75 44.21875 -99.1875 L 44.21875 -35.40625 C 44.21875 -31.226562 44.539062 -28.359375 45.1875 -26.796875 C 43.882812 -26.671875 42.613281 -26.898438 41.375 -27.484375 C 40.132812 -28.066406 39.1875 -29.144531 38.53125 -30.71875 C 38.144531 -31.5 37.953125 -33.84375 37.953125 -37.75 L 37.953125 -101.53125 C 37.953125 -102.707031 37.953125 -103.648438 37.953125 -104.359375 C 37.953125 -105.078125 38.015625 -106.085938 38.140625 -107.390625 Z M 96.640625 -61.421875 C 97.679688 -60.898438 98.203125 -59.921875 98.203125 -58.484375 C 98.203125 -57.316406 97.679688 -56.40625 96.640625 -55.75 L 88.8125 -51.25 L 89.015625 -36.390625 C 89.015625 -26.867188 87.546875 -18.941406 84.609375 -12.609375 C 81.671875 -6.285156 77.722656 -1.429688 72.765625 1.953125 C 67.816406 5.347656 62.273438 7.367188 56.140625 8.015625 C 50.015625 8.671875 43.820312 8.148438 37.5625 6.453125 C 36.78125 6.191406 36.484375 5.765625 36.671875 5.171875 C 36.867188 4.585938 37.359375 4.363281 38.140625 4.5 C 45.453125 5.414062 52.757812 4.335938 60.0625 1.265625 C 67.363281 -1.796875 73.359375 -7.109375 78.046875 -14.671875 C 79.742188 -17.796875 80.953125 -21.539062 81.671875 -25.90625 C 82.390625 -30.28125 82.75 -33.96875 82.75 -36.96875 L 82.546875 -59.078125 L 88.625 -62.59375 C 89.664062 -63.25 90.507812 -63.90625 91.15625 -64.5625 Z M 96.640625 -61.421875 "/></g></g></g><g fill="#413426" fill-opacity="1"><g transform="translate(977.693559, 240.221492)"><g><path d="M 83.921875 -127.15625 C 83.921875 -129.375 83.820312 -131.492188 83.625 -133.515625 C 83.4375 -135.535156 82.296875 -136.609375 80.203125 -136.734375 C 78.765625 -137.003906 77.265625 -137.140625 75.703125 -137.140625 C 74.140625 -137.140625 72.507812 -137.140625 70.8125 -137.140625 C 67.6875 -137.140625 65.40625 -136.972656 63.96875 -136.640625 C 62.53125 -136.316406 61.648438 -135.46875 61.328125 -134.09375 C 61.003906 -132.726562 60.84375 -130.414062 60.84375 -127.15625 C 60.84375 -127.550781 60.84375 -124.222656 60.84375 -117.171875 C 60.84375 -110.128906 60.773438 -99.304688 60.640625 -84.703125 C 60.640625 -81.441406 60.609375 -79.160156 60.546875 -77.859375 C 60.484375 -76.554688 60.191406 -75.125 59.671875 -73.5625 C 59.273438 -72.382812 58.585938 -71.796875 57.609375 -71.796875 C 56.628906 -71.796875 55.878906 -72.382812 55.359375 -73.5625 C 54.972656 -74.34375 54.582031 -75.316406 54.1875 -76.484375 L 39.71875 -125.390625 C 39.1875 -127.222656 38.722656 -128.753906 38.328125 -129.984375 C 37.941406 -131.222656 37.617188 -132.171875 37.359375 -132.828125 C 36.578125 -135.566406 34.945312 -136.9375 32.46875 -136.9375 L 13.890625 -136.9375 C 11.671875 -136.800781 10.429688 -135.691406 10.171875 -133.609375 C 9.910156 -131.523438 9.78125 -128.984375 9.78125 -125.984375 L 9.78125 -11.546875 C 9.78125 -8.410156 9.910156 -5.734375 10.171875 -3.515625 C 10.429688 -1.304688 12.0625 -0.00390625 15.0625 0.390625 L 21.90625 0.390625 C 25.5625 0.390625 28.171875 0.226562 29.734375 -0.09375 C 31.296875 -0.425781 32.238281 -1.304688 32.5625 -2.734375 C 32.894531 -4.171875 33.0625 -6.648438 33.0625 -10.171875 L 33.0625 -52.625 C 33.0625 -56.800781 33.320312 -59.601562 33.84375 -61.03125 C 34.363281 -62.207031 35.144531 -62.890625 36.1875 -63.078125 C 37.226562 -63.273438 38.007812 -62.789062 38.53125 -61.625 L 40.890625 -55.171875 C 40.753906 -55.691406 41.828125 -52.164062 44.109375 -44.59375 C 46.390625 -37.03125 50.140625 -25.554688 55.359375 -10.171875 C 55.878906 -8.734375 56.300781 -7.554688 56.625 -6.640625 C 56.957031 -5.734375 57.1875 -4.953125 57.3125 -4.296875 C 58.09375 -2.210938 59.429688 -0.875 61.328125 -0.28125 C 63.222656 0.300781 65.242188 0.554688 67.390625 0.484375 C 69.546875 0.421875 71.40625 0.390625 72.96875 0.390625 C 76.488281 0.390625 79 0.226562 80.5 -0.09375 C 82 -0.425781 82.941406 -1.375 83.328125 -2.9375 C 83.722656 -4.5 83.921875 -6.976562 83.921875 -10.375 Z M 42.84375 -127.15625 C 44.40625 -127.289062 45.835938 -127.128906 47.140625 -126.671875 C 48.453125 -126.210938 49.367188 -125.070312 49.890625 -123.25 C 50.148438 -122.59375 50.472656 -121.644531 50.859375 -120.40625 C 51.253906 -119.164062 51.710938 -117.632812 52.234375 -115.8125 L 57.125 -98.796875 L 57.125 -84.515625 C 57.125 -83.992188 56.925781 -83.695312 56.53125 -83.625 C 56.144531 -83.5625 55.820312 -83.789062 55.5625 -84.3125 Z M 89.984375 -126.953125 C 92.078125 -126.828125 93.21875 -125.753906 93.40625 -123.734375 C 93.601562 -121.710938 93.703125 -119.59375 93.703125 -117.375 L 93.703125 -0.59375 C 93.703125 3.71875 92.984375 6.585938 91.546875 8.015625 C 90.117188 9.453125 87.1875 10.171875 82.75 10.171875 C 81.1875 10.171875 79.296875 10.203125 77.078125 10.265625 C 74.859375 10.335938 72.800781 10.046875 70.90625 9.390625 C 69.019531 8.734375 67.75 7.429688 67.09375 5.484375 C 66.96875 5.222656 66.90625 4.957031 66.90625 4.6875 C 66.90625 4.425781 66.835938 4.234375 66.703125 4.109375 C 68.015625 4.109375 69.191406 4.070312 70.234375 4 C 71.273438 3.9375 72.1875 3.90625 72.96875 3.90625 C 77.789062 3.90625 81.210938 3.707031 83.234375 3.3125 C 85.253906 2.925781 86.457031 1.722656 86.84375 -0.296875 C 87.238281 -2.316406 87.4375 -5.675781 87.4375 -10.375 L 87.4375 -127.15625 C 87.832031 -127.15625 88.257812 -127.15625 88.71875 -127.15625 C 89.175781 -127.15625 89.597656 -127.085938 89.984375 -126.953125 Z M 36.578125 -51.84375 C 36.578125 -52.488281 36.804688 -52.875 37.265625 -53 C 37.722656 -53.132812 38.015625 -52.878906 38.140625 -52.234375 C 38.660156 -50.929688 39.210938 -49.300781 39.796875 -47.34375 C 40.390625 -45.382812 41.40625 -42.125 42.84375 -37.5625 L 42.84375 -0.390625 C 42.84375 3.785156 42.125 6.585938 40.6875 8.015625 C 39.25 9.453125 36.25 10.171875 31.6875 10.171875 L 24.84375 10.171875 C 22.757812 9.910156 21.390625 9.222656 20.734375 8.109375 C 20.085938 7.003906 19.695312 5.601562 19.5625 3.90625 L 21.90625 3.90625 C 26.863281 3.90625 30.351562 3.707031 32.375 3.3125 C 34.394531 2.925781 35.597656 1.757812 35.984375 -0.1875 C 36.378906 -2.144531 36.578125 -5.472656 36.578125 -10.171875 Z M 36.578125 -51.84375 "/></g></g></g><g fill="#413426" fill-opacity="1"><g transform="translate(1081.181953, 240.221492)"><g><path d="M 76.484375 -11.734375 C 77.523438 -5.992188 77.265625 -2.472656 75.703125 -1.171875 C 75.179688 -0.648438 73.613281 -0.289062 71 -0.09375 C 68.394531 0.101562 65.789062 0.164062 63.1875 0.09375 C 60.582031 0.03125 59.015625 0 58.484375 0 C 56.660156 -0.132812 55.359375 -0.59375 54.578125 -1.375 C 53.660156 -2.15625 53.070312 -3.359375 52.8125 -4.984375 C 52.550781 -6.617188 52.226562 -9 51.84375 -12.125 C 51.707031 -13.5625 51.570312 -14.863281 51.4375 -16.03125 C 51.3125 -17.207031 51.117188 -18.1875 50.859375 -18.96875 C 50.859375 -19.625 50.695312 -20.863281 50.375 -22.6875 C 50.050781 -24.519531 49.398438 -26.28125 48.421875 -27.96875 C 47.441406 -29.664062 45.773438 -30.515625 43.421875 -30.515625 C 42.898438 -30.648438 42.507812 -30.71875 42.25 -30.71875 C 41.988281 -30.71875 41.859375 -30.71875 41.859375 -30.71875 C 38.472656 -30.71875 35.929688 -30.550781 34.234375 -30.21875 C 32.535156 -29.894531 31.328125 -29.015625 30.609375 -27.578125 C 29.898438 -26.148438 29.347656 -23.738281 28.953125 -20.34375 C 28.816406 -19.5625 28.519531 -17.863281 28.0625 -15.25 C 27.613281 -12.644531 27 -9.0625 26.21875 -4.5 C 25.695312 -1.632812 24.066406 -0.203125 21.328125 -0.203125 C 15.328125 -0.0664062 10.238281 -0.0664062 6.0625 -0.203125 C 3.320312 -0.328125 1.984375 -1.300781 2.046875 -3.125 C 2.117188 -4.957031 2.347656 -7.304688 2.734375 -10.171875 C 5.085938 -23.472656 6.976562 -34.296875 8.40625 -42.640625 C 9.84375 -50.992188 10.820312 -56.863281 11.34375 -60.25 C 11.34375 -60.507812 11.375 -60.769531 11.4375 -61.03125 C 11.507812 -61.289062 11.546875 -61.488281 11.546875 -61.625 L 4.6875 -65.734375 C 3.519531 -66.378906 2.9375 -67.289062 2.9375 -68.46875 C 2.9375 -69.769531 3.519531 -70.679688 4.6875 -71.203125 L 14.078125 -76.6875 C 16.296875 -88.8125 18.125 -99.273438 19.5625 -108.078125 C 21 -116.878906 22.171875 -123.957031 23.078125 -129.3125 C 23.734375 -132.570312 24.613281 -134.65625 25.71875 -135.5625 C 26.832031 -136.476562 28.953125 -136.9375 32.078125 -136.9375 L 49.890625 -136.9375 C 51.972656 -136.675781 53.40625 -136.285156 54.1875 -135.765625 C 54.84375 -135.109375 55.394531 -134 55.84375 -132.4375 C 56.300781 -130.875 56.660156 -129.3125 56.921875 -127.75 C 59.660156 -111.570312 61.75 -99.175781 63.1875 -90.5625 C 64.625 -81.957031 65.40625 -77.265625 65.53125 -76.484375 L 74.734375 -71.203125 C 75.773438 -70.554688 76.296875 -69.644531 76.296875 -68.46875 C 76.296875 -67.289062 75.773438 -66.378906 74.734375 -65.734375 L 68.078125 -61.8125 C 70.679688 -45.90625 72.703125 -33.773438 74.140625 -25.421875 C 75.578125 -17.078125 76.359375 -12.515625 76.484375 -11.734375 Z M 65.53125 -125.78125 C 66.1875 -125.132812 66.738281 -124.023438 67.1875 -122.453125 C 67.644531 -120.890625 68.003906 -119.328125 68.265625 -117.765625 C 69.960938 -107.722656 71.429688 -99.113281 72.671875 -91.9375 C 73.910156 -84.769531 74.859375 -79.097656 75.515625 -74.921875 C 74.472656 -75.578125 73.363281 -76.257812 72.1875 -76.96875 C 71.007812 -77.6875 69.898438 -78.3125 68.859375 -78.84375 C 68.597656 -80.664062 68.078125 -83.726562 67.296875 -88.03125 C 66.515625 -92.332031 65.535156 -98.132812 64.359375 -105.4375 C 63.835938 -108.570312 63.25 -111.929688 62.59375 -115.515625 C 61.945312 -119.097656 61.296875 -122.910156 60.640625 -126.953125 C 62.203125 -126.953125 63.273438 -126.851562 63.859375 -126.65625 C 64.453125 -126.46875 65.007812 -126.175781 65.53125 -125.78125 Z M 45.78125 -54.78125 C 45.78125 -55.039062 45.78125 -55.429688 45.78125 -55.953125 C 45.78125 -56.472656 45.710938 -57.1875 45.578125 -58.09375 C 45.453125 -59.269531 45.191406 -60.96875 44.796875 -63.1875 C 44.410156 -65.40625 44.019531 -67.488281 43.625 -69.4375 C 43.226562 -71.394531 43.03125 -72.441406 43.03125 -72.578125 C 42.90625 -73.359375 42.515625 -74.335938 41.859375 -75.515625 C 41.335938 -76.554688 40.617188 -76.976562 39.703125 -76.78125 C 38.796875 -76.582031 38.144531 -76.160156 37.75 -75.515625 C 37.101562 -73.679688 36.484375 -71.265625 35.890625 -68.265625 C 35.304688 -65.273438 34.882812 -61.691406 34.625 -57.515625 C 34.5 -56.992188 34.4375 -56.503906 34.4375 -56.046875 C 34.4375 -55.585938 34.4375 -55.226562 34.4375 -54.96875 C 34.4375 -54.050781 35.347656 -53.429688 37.171875 -53.109375 C 38.992188 -52.785156 40.847656 -52.785156 42.734375 -53.109375 C 44.628906 -53.429688 45.644531 -53.988281 45.78125 -54.78125 Z M 41.859375 -56.734375 C 41.597656 -56.597656 40.945312 -56.53125 39.90625 -56.53125 L 38.140625 -56.53125 L 38.140625 -57.3125 C 38.398438 -59.925781 38.660156 -62.242188 38.921875 -64.265625 C 39.191406 -66.285156 39.457031 -68.015625 39.71875 -69.453125 C 39.84375 -69.191406 39.90625 -68.925781 39.90625 -68.65625 C 39.90625 -68.394531 39.972656 -68.070312 40.109375 -67.6875 C 40.367188 -66.125 40.691406 -64.332031 41.078125 -62.3125 C 41.472656 -60.289062 41.734375 -58.753906 41.859375 -57.703125 Z M 88.03125 -1.953125 C 88.550781 0.910156 88.8125 3.0625 88.8125 4.5 C 88.8125 5.9375 88.421875 6.976562 87.640625 7.625 C 86.859375 8.28125 85.976562 8.769531 85 9.09375 C 84.019531 9.414062 82.320312 9.609375 79.90625 9.671875 C 77.5 9.742188 73.617188 9.78125 68.265625 9.78125 C 66.578125 9.78125 65.273438 9.320312 64.359375 8.40625 C 63.441406 7.625 62.789062 5.992188 62.40625 3.515625 C 62.664062 3.515625 62.988281 3.546875 63.375 3.609375 C 63.769531 3.679688 64.164062 3.71875 64.5625 3.71875 C 69.125 3.71875 72.578125 3.585938 74.921875 3.328125 C 77.273438 3.066406 79.035156 2.285156 80.203125 0.984375 C 80.859375 0.191406 81.148438 -1.304688 81.078125 -3.515625 C 81.015625 -5.734375 80.660156 -8.671875 80.015625 -12.328125 C 79.878906 -12.710938 79.710938 -13.585938 79.515625 -14.953125 C 79.328125 -16.328125 78.972656 -18.644531 78.453125 -21.90625 C 77.796875 -25.6875 76.910156 -30.769531 75.796875 -37.15625 C 74.691406 -43.550781 73.421875 -51.117188 71.984375 -59.859375 L 76.484375 -62.59375 C 77.660156 -63.382812 78.578125 -64.363281 79.234375 -65.53125 L 86.46875 -61.421875 C 87.507812 -60.773438 88.03125 -59.863281 88.03125 -58.6875 C 88.03125 -57.507812 87.507812 -56.597656 86.46875 -55.953125 L 79.625 -52.03125 C 82.226562 -36.125 84.242188 -23.992188 85.671875 -15.640625 C 87.109375 -7.296875 87.894531 -2.734375 88.03125 -1.953125 Z M 43.234375 -26.796875 C 43.617188 -26.796875 44.203125 -26.566406 44.984375 -26.109375 C 45.773438 -25.660156 46.429688 -23.9375 46.953125 -20.9375 C 44.335938 -20.9375 42.441406 -20.671875 41.265625 -20.140625 C 40.097656 -19.617188 39.285156 -18.640625 38.828125 -17.203125 C 38.367188 -15.773438 37.945312 -13.5625 37.5625 -10.5625 C 37.425781 -9.78125 37.257812 -8.671875 37.0625 -7.234375 C 36.875 -5.804688 36.390625 -2.875 35.609375 1.5625 C 35.347656 3 34.660156 4.691406 33.546875 6.640625 C 32.441406 8.597656 30.257812 9.578125 27 9.578125 C 24 9.578125 21.910156 9.609375 20.734375 9.671875 C 19.554688 9.742188 17.925781 9.710938 15.84375 9.578125 C 13.757812 9.453125 12.550781 8.832031 12.21875 7.71875 C 11.894531 6.613281 11.800781 5.210938 11.9375 3.515625 L 12.90625 3.515625 C 14.21875 3.515625 15.585938 3.515625 17.015625 3.515625 C 18.453125 3.515625 19.890625 3.453125 21.328125 3.328125 C 26.148438 3.328125 28.953125 0.976562 29.734375 -3.71875 L 31.296875 -12.125 C 31.554688 -14.34375 31.816406 -16.070312 32.078125 -17.3125 C 32.335938 -18.550781 32.46875 -19.429688 32.46875 -19.953125 C 32.601562 -20.734375 32.800781 -21.90625 33.0625 -23.46875 C 33.320312 -25.039062 33.710938 -26.019531 34.234375 -26.40625 C 34.628906 -26.664062 35.609375 -26.828125 37.171875 -26.890625 C 38.734375 -26.960938 40.296875 -27 41.859375 -27 L 42.640625 -27 L 42.84375 -26.796875 Z M 43.234375 -26.796875 "/></g></g></g><g fill="#413426" fill-opacity="1"><g transform="translate(1171.954412, 240.221492)"><g><path d="M 32.859375 -125.78125 C 32.859375 -129.175781 32.757812 -131.882812 32.5625 -133.90625 C 32.375 -135.925781 30.972656 -137.066406 28.359375 -137.328125 C 27.191406 -137.460938 25.332031 -137.53125 22.78125 -137.53125 C 20.238281 -137.53125 17.796875 -137.429688 15.453125 -137.234375 C 13.109375 -137.035156 11.609375 -136.609375 10.953125 -135.953125 C 10.171875 -135.171875 9.78125 -132.367188 9.78125 -127.546875 L 9.78125 -10.953125 C 9.78125 -8.210938 9.910156 -5.800781 10.171875 -3.71875 C 10.429688 -1.632812 11.863281 -0.460938 14.46875 -0.203125 C 15.519531 -0.0664062 16.726562 0 18.09375 0 C 19.46875 0 21.066406 0 22.890625 0 C 26.148438 0 28.460938 -0.160156 29.828125 -0.484375 C 31.203125 -0.816406 32.050781 -1.664062 32.375 -3.03125 C 32.695312 -4.40625 32.859375 -6.722656 32.859375 -9.984375 Z M 38.140625 -127.546875 C 40.753906 -127.285156 42.15625 -126.144531 42.34375 -124.125 C 42.539062 -122.101562 42.640625 -119.394531 42.640625 -116 L 42.640625 -0.203125 C 42.640625 3.847656 41.988281 6.523438 40.6875 7.828125 C 39.382812 9.128906 36.710938 9.78125 32.671875 9.78125 C 30.847656 9.78125 29.25 9.78125 27.875 9.78125 C 26.507812 9.78125 25.300781 9.710938 24.25 9.578125 C 22.425781 9.453125 21.222656 8.832031 20.640625 7.71875 C 20.054688 6.613281 19.695312 5.210938 19.5625 3.515625 L 22.890625 3.515625 C 27.453125 3.515625 30.644531 3.316406 32.46875 2.921875 C 34.300781 2.535156 35.410156 1.398438 35.796875 -0.484375 C 36.191406 -2.378906 36.390625 -5.546875 36.390625 -9.984375 L 36.390625 -127.546875 Z M 38.140625 -127.546875 "/></g></g></g><g fill="#413426" fill-opacity="1"><g transform="translate(1224.383314, 240.221492)"><g><path d="M 78.640625 -10.765625 C 76.035156 -21.191406 73.851562 -29.726562 72.09375 -36.375 C 70.332031 -43.03125 68.992188 -47.925781 68.078125 -51.0625 C 66.898438 -56.007812 67.617188 -60.113281 70.234375 -63.375 C 74.015625 -68.207031 75.90625 -72.835938 75.90625 -77.265625 C 76.03125 -95.265625 76.03125 -106.875 75.90625 -112.09375 C 75.769531 -117.570312 73.941406 -122.394531 70.421875 -126.5625 C 66.898438 -130.738281 62.46875 -133.476562 57.125 -134.78125 C 50.863281 -136.613281 45.253906 -137.398438 40.296875 -137.140625 L 29.9375 -137.140625 C 24.320312 -137.140625 20.015625 -137.140625 17.015625 -137.140625 C 14.015625 -137.140625 12.0625 -136.679688 11.15625 -135.765625 C 10.238281 -134.847656 9.78125 -131.910156 9.78125 -126.953125 L 9.78125 -11.34375 C 9.78125 -8.082031 9.878906 -5.410156 10.078125 -3.328125 C 10.273438 -1.242188 11.675781 -0.132812 14.28125 0 C 18.976562 0.257812 23.609375 0.257812 28.171875 0 C 30.910156 -0.132812 32.375 -1.210938 32.5625 -3.234375 C 32.757812 -5.253906 32.859375 -7.695312 32.859375 -10.5625 L 32.859375 -38.140625 C 32.992188 -41.140625 33.222656 -43.8125 33.546875 -46.15625 C 33.867188 -48.507812 35.46875 -49.882812 38.34375 -50.28125 C 41.207031 -50.664062 43.0625 -49.878906 43.90625 -47.921875 C 44.757812 -45.972656 45.382812 -44.082031 45.78125 -42.25 L 49.5 -26.40625 C 50.539062 -22.625 51.382812 -19.394531 52.03125 -16.71875 C 52.6875 -14.050781 53.144531 -12 53.40625 -10.5625 C 54.0625 -7.820312 54.710938 -5.441406 55.359375 -3.421875 C 56.015625 -1.398438 57.382812 -0.257812 59.46875 0 C 62.726562 0.132812 65.820312 0.203125 68.75 0.203125 C 71.6875 0.203125 74.460938 0.0664062 77.078125 -0.203125 C 78.117188 -0.328125 78.929688 -0.78125 79.515625 -1.5625 C 80.109375 -2.34375 80.273438 -3.191406 80.015625 -4.109375 C 79.878906 -5.023438 79.710938 -6.035156 79.515625 -7.140625 C 79.328125 -8.242188 79.035156 -9.453125 78.640625 -10.765625 Z M 88.625 9.578125 C 86.007812 9.710938 82.941406 9.8125 79.421875 9.875 C 75.898438 9.945312 72.507812 9.914062 69.25 9.78125 C 67.6875 9.519531 66.546875 8.867188 65.828125 7.828125 C 65.109375 6.785156 64.554688 5.414062 64.171875 3.71875 C 66.773438 3.84375 69.148438 3.835938 71.296875 3.703125 C 73.453125 3.578125 75.507812 3.453125 77.46875 3.328125 C 81.25 3.066406 83.269531 2.1875 83.53125 0.6875 C 83.789062 -0.8125 83.789062 -2.601562 83.53125 -4.6875 C 83.269531 -6.257812 82.648438 -9.066406 81.671875 -13.109375 C 80.691406 -17.148438 79.550781 -21.644531 78.25 -26.59375 C 76.945312 -31.550781 75.675781 -36.34375 74.4375 -40.96875 C 73.195312 -45.601562 72.1875 -49.289062 71.40625 -52.03125 C 70.625 -55.8125 71.144531 -58.878906 72.96875 -61.234375 C 77.269531 -66.578125 79.421875 -71.921875 79.421875 -77.265625 C 79.554688 -86.398438 79.585938 -93.835938 79.515625 -99.578125 C 79.453125 -105.316406 79.421875 -109.550781 79.421875 -112.28125 L 79.421875 -115.609375 C 79.421875 -117.441406 79.941406 -117.507812 80.984375 -115.8125 C 82.285156 -113.988281 83.359375 -111.835938 84.203125 -109.359375 C 85.054688 -106.878906 85.550781 -104.53125 85.6875 -102.3125 C 85.8125 -100.613281 85.84375 -98.984375 85.78125 -97.421875 C 85.71875 -95.859375 85.6875 -93.609375 85.6875 -90.671875 C 85.6875 -87.734375 85.6875 -83.265625 85.6875 -77.265625 C 85.6875 -73.617188 85.097656 -70.226562 83.921875 -67.09375 C 82.742188 -63.96875 81.242188 -61.234375 79.421875 -58.890625 C 78.117188 -57.191406 77.726562 -55.265625 78.25 -53.109375 C 78.769531 -50.960938 79.8125 -47.019531 81.375 -41.28125 C 82.289062 -38.144531 83.5625 -33.21875 85.1875 -26.5 C 86.820312 -19.789062 89.070312 -11.285156 91.9375 -0.984375 C 92.726562 1.890625 93.054688 4.300781 92.921875 6.25 C 92.785156 8.207031 91.351562 9.316406 88.625 9.578125 Z M 54.1875 -84.90625 C 54.1875 -84.769531 54.15625 -84.503906 54.09375 -84.109375 C 54.03125 -83.722656 53.929688 -83.203125 53.796875 -82.546875 C 53.015625 -78.898438 51.125 -76.128906 48.125 -74.234375 C 45.125 -72.347656 41.796875 -71.859375 38.140625 -72.765625 C 34.878906 -73.679688 33.25 -75.769531 33.25 -79.03125 C 33.25 -79.289062 33.21875 -80.691406 33.15625 -83.234375 C 33.09375 -85.773438 33.0625 -89.203125 33.0625 -93.515625 C 33.0625 -98.984375 33.023438 -103.25 32.953125 -106.3125 C 32.890625 -109.382812 33.445312 -111.503906 34.625 -112.671875 C 35.800781 -113.847656 38.210938 -114.175781 41.859375 -113.65625 C 42.253906 -113.53125 42.675781 -113.429688 43.125 -113.359375 C 43.582031 -113.296875 44.140625 -113.203125 44.796875 -113.078125 C 48.054688 -112.285156 50.40625 -111.109375 51.84375 -109.546875 C 53.28125 -107.984375 54.0625 -105.632812 54.1875 -102.5 Z M 42.84375 -76.09375 C 41.144531 -75.832031 39.707031 -75.863281 38.53125 -76.1875 C 37.363281 -76.519531 36.78125 -77.46875 36.78125 -79.03125 C 36.78125 -79.289062 36.742188 -80.691406 36.671875 -83.234375 C 36.609375 -85.773438 36.578125 -89.203125 36.578125 -93.515625 C 36.578125 -98.859375 36.507812 -102.734375 36.375 -105.140625 C 36.25 -107.554688 36.445312 -109.09375 36.96875 -109.75 C 37.363281 -110.394531 38.800781 -110.523438 41.28125 -110.140625 C 42.96875 -110.003906 44.070312 -109.90625 44.59375 -109.84375 C 45.125 -109.78125 45.648438 -109.617188 46.171875 -109.359375 C 44.078125 -107.523438 43 -104.75 42.9375 -101.03125 C 42.875 -97.320312 42.84375 -91.554688 42.84375 -83.734375 Z M 38.734375 -46.75 C 39.773438 -47.007812 40.488281 -46.8125 40.875 -46.15625 C 41.269531 -45.507812 41.726562 -43.945312 42.25 -41.46875 L 43.421875 -36.78125 C 43.035156 -35.738281 42.84375 -34.46875 42.84375 -32.96875 C 42.84375 -31.46875 42.773438 -29.929688 42.640625 -28.359375 L 42.640625 -0.78125 C 42.640625 2.082031 42.539062 4.523438 42.34375 6.546875 C 42.15625 8.566406 40.691406 9.644531 37.953125 9.78125 C 33.390625 10.039062 28.757812 10.039062 24.0625 9.78125 C 22.238281 9.644531 21.03125 9.023438 20.4375 7.921875 C 19.851562 6.816406 19.5625 5.414062 19.5625 3.71875 C 21 3.71875 22.46875 3.71875 23.96875 3.71875 C 25.46875 3.71875 26.929688 3.648438 28.359375 3.515625 C 31.492188 3.390625 33.613281 2.539062 34.71875 0.96875 C 35.832031 -0.59375 36.390625 -2.445312 36.390625 -4.59375 C 36.390625 -6.75 36.390625 -8.738281 36.390625 -10.5625 L 36.390625 -38.140625 C 36.515625 -41.921875 36.707031 -44.269531 36.96875 -45.1875 C 37.226562 -46.101562 37.816406 -46.625 38.734375 -46.75 Z M 38.734375 -46.75 "/></g></g></g></svg>